<svg width="40" height="40" viewBox="0 0 40 40" fill="none" xmlns="http://www.w3.org/2000/svg">
<path d="M5.83301 13.732C5.83301 12.7069 5.83301 12.1944 6.03566 11.8042C6.20644 11.4755 6.4745 11.2074 6.80325 11.0366C7.19338 10.834 7.70592 10.834 8.73101 10.834H31.2683C32.2934 10.834 32.806 10.834 33.1961 11.0366C33.5249 11.2074 33.7929 11.4755 33.9637 11.8042C34.1663 12.1944 34.1663 12.7069 34.1663 13.732V27.936C34.1663 28.9611 34.1663 29.4736 33.9637 29.8637C33.7929 30.1925 33.5249 30.4606 33.1961 30.6313C32.806 30.834 32.2934 30.834 31.2683 30.834H8.73101C7.70593 30.834 7.19338 30.834 6.80325 30.6313C6.4745 30.4606 6.20644 30.1925 6.03566 29.8637C5.83301 29.4736 5.83301 28.9611 5.83301 27.936V13.732Z" stroke="white"/>
<path d="M5.83301 17.5L34.1663 17.5" stroke="white" stroke-linecap="round"/>
<ellipse cx="10.8333" cy="25.8333" rx="0.833333" ry="0.833333" fill="white"/>
</svg>
