<svg width="40" height="40" viewBox="0 0 40 40" fill="none" xmlns="http://www.w3.org/2000/svg">
<path d="M26.6663 26.6667V10.3333C26.6663 8.46649 26.6663 7.53307 26.303 6.82003C25.9835 6.19282 25.4735 5.68289 24.8463 5.36331C24.1333 5 23.1999 5 21.333 5H8.66634C6.7995 5 5.86608 5 5.15304 5.36331C4.52583 5.68289 4.0159 6.19282 3.69632 6.82003C3.33301 7.53307 3.33301 8.46649 3.33301 10.3333V21.3333C3.33301 23.2002 3.33301 24.1336 3.69632 24.8466C4.0159 25.4738 4.52583 25.9838 5.15304 26.3034C5.86608 26.6667 6.7995 26.6667 8.66634 26.6667H26.6663ZM26.6663 26.6667H33.9997C34.9331 26.6667 35.3998 26.6667 35.7563 26.485C36.0699 26.3252 36.3249 26.0703 36.4847 25.7567C36.6663 25.4001 36.6663 24.9334 36.6663 24V19.4379C36.6663 19.0303 36.6663 18.8264 36.6203 18.6346C36.5795 18.4646 36.5121 18.302 36.4207 18.1529C36.3177 17.9847 36.1735 17.8405 35.8853 17.5523L32.4474 14.1144C32.1591 13.8261 32.015 13.682 31.8468 13.5789C31.6977 13.4876 31.5351 13.4202 31.3651 13.3794C31.1732 13.3333 30.9694 13.3333 30.5618 13.3333H26.6663M14.9997 30.8333C14.9997 33.1345 13.1342 35 10.833 35C8.53182 35 6.66634 33.1345 6.66634 30.8333C6.66634 28.5321 8.53182 26.6667 10.833 26.6667C13.1342 26.6667 14.9997 28.5321 14.9997 30.8333ZM33.333 30.8333C33.333 33.1345 31.4675 35 29.1663 35C26.8652 35 24.9997 33.1345 24.9997 30.8333C24.9997 28.5321 26.8652 26.6667 29.1663 26.6667C31.4675 26.6667 33.333 28.5321 33.333 30.8333Z" stroke="white" stroke-linecap="round" stroke-linejoin="round"/>
</svg>
