<svg width="17" height="22" viewBox="0 0 17 22" fill="none" xmlns="http://www.w3.org/2000/svg">
<path d="M15.1111 2.6H14.1667V0.5H12.2778V2.6H4.72222V0.5H2.83333V2.6H1.88889C0.840555 2.6 0.00944444 3.545 0.00944444 4.7L0 19.4C0 20.555 0.840555 21.5 1.88889 21.5H15.1111C16.15 21.5 17 20.555 17 19.4V4.7C17 3.545 16.15 2.6 15.1111 2.6ZM15.1111 19.4H1.88889V8.9H15.1111V19.4ZM15.1111 6.8H1.88889V4.7H15.1111V6.8ZM5.66667 13.1H3.77778V11H5.66667V13.1ZM9.44444 13.1H7.55556V11H9.44444V13.1ZM13.2222 13.1H11.3333V11H13.2222V13.1ZM5.66667 17.3H3.77778V15.2H5.66667V17.3ZM9.44444 17.3H7.55556V15.2H9.44444V17.3ZM13.2222 17.3H11.3333V15.2H13.2222V17.3Z" fill="#FF6DB0"/>
</svg>
