<svg width="17" height="21" viewBox="0 0 17 21" fill="none" xmlns="http://www.w3.org/2000/svg">
<path d="M8.5 10.5C7.33125 10.5 6.375 9.555 6.375 8.4C6.375 7.245 7.33125 6.3 8.5 6.3C9.66875 6.3 10.625 7.245 10.625 8.4C10.625 9.555 9.66875 10.5 8.5 10.5ZM14.875 8.61C14.875 4.7985 12.0594 2.1 8.5 2.1C4.94063 2.1 2.125 4.7985 2.125 8.61C2.125 11.067 4.19687 14.322 8.5 18.207C12.8031 14.322 14.875 11.067 14.875 8.61ZM8.5 0C12.9625 0 17 3.381 17 8.61C17 12.096 14.1631 16.2225 8.5 21C2.83687 16.2225 0 12.096 0 8.61C0 3.381 4.0375 0 8.5 0Z" fill="#FF6DB0"/>
</svg>
