<svg width="38" height="40" viewBox="0 0 38 40" fill="none" xmlns="http://www.w3.org/2000/svg">
<path d="M25.6117 14.7055V9.80353C25.6117 6.19382 22.7959 3.26758 19.3224 3.26758C15.8489 3.26758 13.0331 6.19382 13.0331 9.80353V14.7055M6.10231 16.9146L5.15891 27.3721C4.89068 30.3455 4.75656 31.8321 5.23131 32.9804C5.64837 33.9892 6.37922 34.8232 7.30674 35.3489C8.36256 35.9473 9.79942 35.9473 12.6731 35.9473H25.9717C28.8454 35.9473 30.2823 35.9473 31.3381 35.3489C32.2656 34.8232 32.9965 33.9892 33.4135 32.9804C33.8883 31.8321 33.7542 30.3455 33.4859 27.3721L32.5425 16.9146C32.316 14.4038 32.2028 13.1484 31.6594 12.1992C31.1809 11.3633 30.4739 10.6942 29.6284 10.2771C28.6683 9.80353 27.455 9.80353 25.0283 9.80353L13.6165 9.80353C11.1899 9.80353 9.97653 9.80353 9.01648 10.2771C8.17096 10.6942 7.46395 11.3633 6.98542 12.1992C6.44207 13.1484 6.32881 14.4038 6.10231 16.9146Z" stroke="white" stroke-width="4" stroke-linecap="round" stroke-linejoin="round"/>
</svg>
