<svg width="40" height="40" viewBox="0 0 40 40" fill="none" xmlns="http://www.w3.org/2000/svg">
<path d="M26.9375 15.0007V10.0007C26.9375 6.31875 23.9527 3.33398 20.2708 3.33398C16.5889 3.33398 13.6041 6.31875 13.6041 10.0007V15.0006M6.25747 17.2539L5.25747 27.9206C4.97314 30.9534 4.83098 32.4698 5.33421 33.6411C5.77629 34.67 6.551 35.5208 7.53416 36.0569C8.65334 36.6673 10.1764 36.6673 13.2225 36.6673H27.3191C30.3652 36.6673 31.8883 36.6673 33.0074 36.0569C33.9906 35.5208 34.7653 34.67 35.2074 33.6411C35.7106 32.4698 35.5685 30.9534 35.2841 27.9206L34.2841 17.2539C34.044 14.6929 33.924 13.4124 33.348 12.4443C32.8408 11.5916 32.0914 10.9092 31.1951 10.4837C30.1774 10.0007 28.8913 10.0007 26.3191 10.0007L14.2225 10.0007C11.6503 10.0007 10.3642 10.0007 9.3465 10.4837C8.45024 10.9092 7.70081 11.5916 7.19357 12.4443C6.61762 13.4124 6.49757 14.6929 6.25747 17.2539Z" stroke="white" stroke-width="2" stroke-linecap="round" stroke-linejoin="round"/>
</svg>
